<svg version="1.2" baseProfile="tiny-ps" xmlns="http://www.w3.org/2000/svg" viewBox="0 0 804 732" width="804" height="732">
	<title>Shape</title>
	<style>
		tspan { white-space:pre }
		.s0 { fill: #ffffff } 
	</style>
	<path id="Shape" class="s0" d="m518.41 8.13c75.88 24.48 120.85 96.72 100.44 161.38l-151.11 478.74c-20.41 64.65-98.47 97.23-174.34 72.75c-75.88-24.47-120.85-96.73-100.44-161.38l151.11-478.73c20.41-64.66 98.46-97.23 174.34-72.76zm216.79 214.4c49.31 15.9 78.54 62.86 65.27 104.88l-98.21 311.13c-13.26 42.02-63.99 63.19-113.3 47.29c-49.31-15.9-78.54-62.86-65.27-104.88l98.2-311.13c13.26-42.02 63.99-63.19 113.3-47.28zm-520.51-151.88c49.31 15.9 78.54 62.86 65.27 104.88l-98.21 311.13c-13.26 42.02-63.99 63.19-113.3 47.28c-49.31-15.9-78.54-62.86-65.27-104.88l98.21-311.13c13.26-42.02 63.99-63.19 113.3-47.28z" />
</svg>